<?xml version="1.0" encoding="UTF-8"?>
<svg width="752pt" height="752pt" version="1.1" viewBox="0 0 752 752" xmlns="http://www.w3.org/2000/svg">
 <g>
  <path d="m501.5 334.33c0 85.246 19.418 111.29 31.258 118.87 9.9453 6.6289 15.629 17.996 15.629 29.363 0 19.891-16.102 35.52-35.52 35.52h-273.73c-19.418 0-35.52-16.102-35.52-35.52 0-11.84 5.6836-22.73 15.629-29.363 11.84-8.0508 31.258-34.098 31.258-118.87 0-79.562 48.305-111.29 83.824-124.55-0.47266-2.8398-0.94531-6.1562-0.94531-8.9961 0-23.68 18.941-42.621 42.621-42.621s42.621 18.941 42.621 42.621c0 2.8398-0.47266 6.1562-0.94531 8.9961 35.516 12.785 83.82 44.988 83.82 124.55zm-125.5-157.23c-13.262 0-23.68 10.418-23.68 23.68 0 1.4219 0 2.3672 0.47266 3.7891 19.418-4.2617 37.414-1.8945 46.883 0 0-1.4219 0.47266-2.3672 0.47266-3.7891-0.47266-13.262-10.891-23.68-24.148-23.68zm25.098 47.359h-0.47266s-10.418-3.3164-25.102-3.3164c-7.5781 0-15.629 0.94531-24.625 3.7891h-0.47266c-36.938 10.418-81.457 37.887-81.457 109.87 0 44.988-5.2109 79.562-15.629 103.24l193.7-0.003907c5.2109 0 9.4727 4.2617 9.4727 9.4727 0 5.2109-4.2617 9.4727-9.4727 9.4727h-203.64-0.47266c-3.7891 5.2109-8.0508 8.9961-12.785 12.312s-7.5781 8.5234-7.5781 13.734c0 8.9961 7.5781 16.574 16.574 16.574h273.73c8.9961 0 16.574-7.5781 16.574-16.574 0-5.6836-2.8398-10.891-7.5781-13.734-26.047-17.996-39.309-62.984-39.309-134.5 0.003907-72.457-44.039-99.926-81.453-110.34z"/>
  <path d="m371.26 589.11c-29.363 0-54.461-21.785-58.723-50.672l-1.4219-10.891 120.29-0.003906-1.4219 10.891c-4.2617 28.891-29.359 50.676-58.723 50.676zm-36.465-42.621c6.1562 14.207 20.836 23.68 36.465 23.68 15.629 0 30.309-9.4727 36.465-23.68z"/>
  <path d="m470.71 456.51h-1.8945c-0.47266 0-1.4219-0.47266-1.8945-0.47266-0.47266 0-0.94531-0.47266-1.4219-0.94531-0.47266-0.47266-0.94531-0.94531-1.4219-0.94531-1.8906-2.375-2.8398-4.7422-2.8398-7.1094 0-2.3672 0.94531-4.7344 2.8398-6.6289 0.47266-0.47266 0.94531-0.94531 1.4219-0.94531 0.47266 0 0.94531-0.47266 1.4219-0.94531 0.47266 0 0.94531-0.47266 1.8945-0.47266 2.8398-0.47266 6.1562 0.47266 8.5234 2.3672 1.8945 1.8906 2.8438 4.2578 2.8438 6.625 0 2.3672-0.94531 4.7344-2.8398 6.6289-1.8984 1.8945-4.2656 2.8438-6.6328 2.8438z"/>
 </g>
</svg>
